<svg xmlns="http://www.w3.org/2000/svg" viewBox="0 0 160 160" role="img" aria-label="All skill levels climbing icon">
  <defs>
    <linearGradient id="sun" x1="0" y1="1" x2="0" y2="0">
      <stop offset="0" stop-color="#ff7a00"/>
      <stop offset="1" stop-color="#ffd700"/>
    </linearGradient>
  </defs>
  <circle cx="54" cy="44" r="30" fill="url(#sun)"/>
  <path d="M19 132 52 34l35 98Z" fill="#1f7419"/>
  <path d="M71 132 101 55l40 77Z" fill="#15500f"/>
  <path d="M52 34 65 70H40Z" fill="#f4f8f0"/>
  <path d="M101 55 113 83H91Z" fill="#edf4ea"/>
  <path d="M28 132h112" stroke="#142a08" stroke-width="5" stroke-linecap="round"/>
  <path d="M40 111c16-28 38-41 68-50" fill="none" stroke="#f7efe7" stroke-width="5" stroke-linecap="round" stroke-dasharray="1 12"/>
  <g fill="#ae222a" stroke="#142a08" stroke-width="2">
    <circle cx="43" cy="106" r="6"/>
    <circle cx="69" cy="82" r="6"/>
    <circle cx="106" cy="63" r="6"/>
  </g>
  <g stroke="#142a08" stroke-width="4" stroke-linecap="round" stroke-linejoin="round" fill="none">
    <circle cx="45" cy="94" r="5" fill="#142a08" stroke="none"/>
    <path d="M45 99v15l-10 8"/>
    <path d="M45 107l12-5"/>
    <path d="M45 114l9 10"/>
    <circle cx="71" cy="70" r="5" fill="#142a08" stroke="none"/>
    <path d="M71 75v15l-11 9"/>
    <path d="M71 83l12-8"/>
    <path d="M71 90l10 10"/>
    <circle cx="108" cy="51" r="5" fill="#142a08" stroke="none"/>
    <path d="M108 56v16l-9 10"/>
    <path d="M108 64l13-7"/>
    <path d="M108 72l11 9"/>
  </g>
</svg>
