<svg xmlns="http://www.w3.org/2000/svg" viewBox="0 0 160 160" role="img" aria-label="Sun and mountains climbing icon">
  <defs>
    <linearGradient id="sun" x1="0" y1="1" x2="0" y2="0">
      <stop offset="0" stop-color="#ff7a00"/>
      <stop offset="1" stop-color="#ffd700"/>
    </linearGradient>
    <linearGradient id="mtnLeft" x1="0" y1="0" x2="1" y2="0">
      <stop offset="0" stop-color="#2d8020"/>
      <stop offset="1" stop-color="#1d6014"/>
    </linearGradient>
    <linearGradient id="mtnRight" x1="0" y1="0" x2="1" y2="0">
      <stop offset="0" stop-color="#1d6014"/>
      <stop offset="1" stop-color="#154c0e"/>
    </linearGradient>
  </defs>
  <circle cx="62" cy="62" r="43" fill="url(#sun)"/>
  <path d="M28 134 70 31l67 103Z" fill="url(#mtnLeft)"/>
  <path d="M79 134 113 58l39 76Z" fill="url(#mtnRight)"/>
  <path d="M70 31 86 72H55Z" fill="#f4f8f0"/>
  <path d="M113 58 125 89h-24Z" fill="#edf4ea"/>
  <path d="M20 134h128" stroke="#142a08" stroke-width="6" stroke-linecap="round"/>
  <g fill="#142a08">
    <circle cx="58" cy="80" r="5"/>
    <path d="M55 85c-7 7-12 14-16 24l8 3c4-9 8-15 14-21Z"/>
    <path d="M60 84c8 1 16-2 24-8l-4-7c-6 5-12 7-19 6Z"/>
    <path d="M59 93c5 8 11 14 19 18l4-7c-7-4-12-9-16-16Z"/>
    <path d="M57 89c-9 1-17 0-25-4l-4 8c9 4 19 6 30 4Z"/>
  </g>
  <path d="M83 76v31" stroke="#142a08" stroke-width="3" stroke-linecap="round"/>
  <path d="M19 129c24 4 41 4 63 0" stroke="#f4f8f0" stroke-width="4" stroke-linecap="round"/>
  <path d="M27 119c16 3 30 3 48 0" stroke="#f4f8f0" stroke-width="3" stroke-linecap="round"/>
</svg>
