<svg xmlns="http://www.w3.org/2000/svg" viewBox="0 0 96 96" role="img" aria-label="Birthday present icon">
  <circle cx="48" cy="48" r="42" fill="#ff7a00"/>
  <circle cx="48" cy="48" r="42" fill="none" stroke="#ffd700" stroke-width="6" opacity=".45"/>
  <rect x="22" y="40" width="52" height="36" rx="7" fill="#f4f8f0"/>
  <path d="M22 51h52" stroke="#142a08" stroke-width="5"/>
  <path d="M48 40v36" stroke="#ae222a" stroke-width="6"/>
  <path d="M20 40h56" stroke="#142a08" stroke-width="5" stroke-linecap="round"/>
  <path d="M47 38c-9-16-25-9-16 4 6 8 16 0 16 0Z" fill="#f4f8f0" stroke="#142a08" stroke-width="5" stroke-linejoin="round"/>
  <path d="M49 38c9-16 25-9 16 4-6 8-16 0-16 0Z" fill="#f4f8f0" stroke="#142a08" stroke-width="5" stroke-linejoin="round"/>
  <path d="M48 39c-9 3-17 12-22 25" stroke="#ae222a" stroke-width="4" stroke-linecap="round"/>
  <path d="M48 39c9 3 17 12 22 25" stroke="#ae222a" stroke-width="4" stroke-linecap="round"/>
</svg>
