<svg xmlns="http://www.w3.org/2000/svg" viewBox="0 0 160 160" role="img" aria-label="Voucher ticket with birthday present icon">
  <path d="M28 44h104c6 0 10 4 10 10v18c-9 0-16 7-16 16s7 16 16 16v18c0 6-4 10-10 10H28c-6 0-10-4-10-10v-18c9 0 16-7 16-16s-7-16-16-16V54c0-6 4-10 10-10Z" fill="#f4f8f0" stroke="#142a08" stroke-width="6" stroke-linejoin="round"/>
  <path d="M45 44 84 22h48c6 0 10 4 10 10v22" fill="#ff7a00" opacity=".95"/>
  <path d="M45 44 84 22h48c6 0 10 4 10 10v22" fill="none" stroke="#142a08" stroke-width="6" stroke-linejoin="round"/>
  <path d="M110 58v60" stroke="#142a08" stroke-width="4" stroke-linecap="round" stroke-dasharray="5 8"/>
  <circle cx="57" cy="86" r="31" fill="#ae222a"/>
  <rect x="37" y="83" width="40" height="25" rx="5" fill="#f4f8f0"/>
  <path d="M37 92h40" stroke="#142a08" stroke-width="4"/>
  <path d="M57 83v25" stroke="#ff7a00" stroke-width="5"/>
  <path d="M35 83h44" stroke="#142a08" stroke-width="4" stroke-linecap="round"/>
  <path d="M56 80c-7-12-19-7-12 3 5 7 12-3 12-3Z" fill="#f4f8f0" stroke="#142a08" stroke-width="4" stroke-linejoin="round"/>
  <path d="M58 80c7-12 19-7 12 3-5 7-12-3-12-3Z" fill="#f4f8f0" stroke="#142a08" stroke-width="4" stroke-linejoin="round"/>
  <g fill="#142a08">
    <circle cx="124" cy="73" r="4"/>
    <circle cx="124" cy="88" r="4"/>
    <circle cx="124" cy="103" r="4"/>
  </g>
</svg>
