<svg xmlns="http://www.w3.org/2000/svg" viewBox="0 0 160 160" role="img" aria-label="Thriving community climbing icon">
  <rect x="18" y="22" width="124" height="116" rx="20" fill="#f7efe7"/>
  <path d="M18 53 65 22h77v116H18Z" fill="#ead7ca"/>
  <path d="M70 22h72v116H92Z" fill="#5a3c31"/>
  <path d="M18 104 82 62l60 76H18Z" fill="#f2e8dd"/>
  <g fill="#ae222a">
    <path d="M43 47c7-5 15 2 11 9-4 8-16 6-18-2-1-3 2-5 7-7Z"/>
    <path d="M102 43c9 0 12 10 5 15-8 5-17-3-14-11 1-3 4-4 9-4Z"/>
    <path d="M119 93c8-4 15 4 10 11-6 7-17 3-17-6 0-3 3-4 7-5Z"/>
  </g>
  <g fill="#ff7a00">
    <path d="M70 93c8-3 14 5 8 11-6 6-16 2-15-6 0-3 3-4 7-5Z"/>
    <path d="M35 118c7-4 14 3 10 10-5 6-16 4-17-4 0-3 3-4 7-6Z"/>
  </g>
  <g fill="#1f7419">
    <path d="M79 42c6-5 14 0 11 8-4 8-15 8-17 0-1-3 1-5 6-8Z"/>
    <path d="M124 37c7-5 15 2 11 9-5 8-16 5-18-2-1-3 2-5 7-7Z"/>
  </g>
  <path d="M49 66c22 22 42 28 68 37" fill="none" stroke="#142a08" stroke-width="3" stroke-linecap="round" stroke-dasharray="5 7"/>
  <g stroke="#142a08" stroke-width="4" stroke-linecap="round" stroke-linejoin="round" fill="none">
    <circle cx="50" cy="61" r="5" fill="#142a08" stroke="none"/>
    <path d="M50 66v18l-11 11"/>
    <path d="M50 75l16-9"/>
    <path d="M50 84l12 12"/>
    <circle cx="86" cy="84" r="5" fill="#142a08" stroke="none"/>
    <path d="M86 89v18l-13 10"/>
    <path d="M86 97l12-13"/>
    <path d="M86 107l13 9"/>
    <circle cx="118" cy="76" r="5" fill="#142a08" stroke="none"/>
    <path d="M118 81v19l-11 10"/>
    <path d="M118 91l16-5"/>
    <path d="M118 100l9 13"/>
  </g>
</svg>
